<svg width="800" height="600" xmlns="http://www.w3.org/2000/svg" xmlns:xlink="http://www.w3.org/1999/xlink">
<link xmlns="http://www.w3.org/1999/xhtml" rel="stylesheet" href="css/default.css" type="text/css" />
<line id="E" class="edge" x1="100" y1="100" x2="350" y2="375" stroke="darkorange" stroke-width="3" />
<g transform="translate(325,347.500000) rotate(47.726311)"><polygon id="E-he" class="node" points="-15 0 -15 -10 0 0 -15 10" fill="darkorange" /></g>
<line id="F" class="edge unimportant" x1="350" y1="375" x2="300" y2="120" stroke="gray" stroke-width="3" />
<a xlink:href="https://news.ycombinator.com" xlink:title="click"><rect id="A" class="node" x="50" y="75" width="100" height="50" rx="0" ry="0" fill="#80C0FF" /><text id="A-label" class="text" x="100" y="106" textLength="95" fill="white" font-family="helvetica,arial,sans-serif" text-anchor="middle" lengthAdjust="spacingAndGlyphs">Starting Point</text></a>
<rect id="B" class="node unimportant trivial" x="300" y="300" width="100" height="150" rx="10" ry="10" fill="green" /><text id="B-label" class="text unimportant" x="350" y="381" textLength="95" fill="black" font-family="helvetica,arial,sans-serif" text-anchor="middle" lengthAdjust="spacingAndGlyphs">Ending Point</text>
<rect id="C" class="node" x="250" y="85" width="100" height="70" rx="35" ry="35" fill="#0080FF" /><text id="C-label" class="text" x="300" y="126" textLength="40" fill="black" font-family="helvetica,arial,sans-serif" text-anchor="middle" lengthAdjust="spacingAndGlyphs">Oval</text>
<a xlink:href="https://www.duckduckgo.com" xlink:title="click"><circle id="CC" class="node important" cx="200" cy="420" r="50" fill="#FF8000" /><text id="CC-label" class="text" x="200" y="426" textLength="20" fill="black" font-family="helvetica,arial,sans-serif" text-anchor="middle" lengthAdjust="spacingAndGlyphs">CC</text></a>
<rect id="Z" class="node" x="75" y="275" width="50" height="50" rx="0" ry="0" fill="#80C0FF" /><text id="Z-label" class="text" x="100" y="306" textLength="10" fill="black" font-family="helvetica,arial,sans-serif" text-anchor="middle" lengthAdjust="spacingAndGlyphs"> </text>
<g transform="translate(100,200) rotate(0)"><polygon id="D" class="node c3" points="-50 0 0 25 50 0 0 -25" fill="#80C0FF" /></g><text id="D-label" class="text" x="100" y="206" textLength="50" fill="black" font-family="helvetica,arial,sans-serif" text-anchor="middle" lengthAdjust="spacingAndGlyphs">Shine</text>
<g transform="translate(200,200) rotate(0)"><polygon id="D2" class="node c4" points="-25 0 0 25 25 0 0 -25" fill="#80C0FF" /></g><text id="D2-label" class="text" x="200" y="206" textLength="20" fill="black" font-family="helvetica,arial,sans-serif" text-anchor="middle" lengthAdjust="spacingAndGlyphs">On</text>
</svg>
